<?xml version="1.0" standalone="no"?>
<!DOCTYPE svg PUBLIC "-//W3C//DTD SVG 20010904//EN"
 "http://www.w3.org/TR/2001/REC-SVG-20010904/DTD/svg10.dtd">
<svg version="1.0" xmlns="http://www.w3.org/2000/svg"
 width="592.000000pt" height="421.000000pt" viewBox="0 0 592.000000 421.000000"
 preserveAspectRatio="xMidYMid meet">

<g transform="translate(0.000000,421.000000) scale(0.100000,-0.100000)"
fill="#000000" stroke="none">
<path d="M5708 4191 c-25 -10 -135 -77 -245 -149 -231 -151 -365 -228 -481
-276 -83 -34 -84 -34 -168 -142 -582 -750 -1271 -1908 -1465 -2464 -17 -50
-35 -90 -39 -90 -4 0 -11 96 -14 213 -17 533 -48 841 -121 1203 -154 758 -458
1207 -905 1334 -107 31 -313 38 -440 16 -559 -98 -1054 -586 -1184 -1169 -6
-27 -5 -28 25 -25 31 3 33 6 54 78 102 354 390 697 685 817 105 42 192 56 315
49 316 -16 546 -165 735 -475 l33 -53 -22 -132 c-87 -509 -242 -1010 -441
-1424 -265 -549 -598 -945 -935 -1112 -228 -113 -395 -112 -553 4 -75 56 -129
137 -171 257 -43 124 -60 142 -128 137 -94 -8 -189 -102 -228 -225 -16 -49
-17 -67 -7 -121 29 -173 154 -298 347 -347 77 -19 259 -20 361 0 374 71 729
337 1051 786 358 499 678 1278 779 1899 17 101 27 130 40 118 24 -24 158 -466
204 -673 103 -464 133 -799 134 -1530 1 -499 3 -540 18 -543 10 -2 57 14 105
36 48 22 112 48 140 58 52 18 53 19 64 74 6 30 31 135 56 233 228 907 714
1844 1413 2729 44 55 70 72 70 45 0 -18 -90 -607 -135 -881 -19 -116 -61 -377
-94 -581 -33 -203 -76 -469 -96 -590 -34 -212 -70 -436 -121 -765 -13 -85 -24
-171 -24 -190 0 -55 42 -133 85 -160 33 -20 45 -22 113 -17 43 3 169 26 282
52 113 26 300 66 415 90 l210 43 0 28 c0 26 -3 29 -30 26 -411 -38 -501 -6
-542 194 -14 69 -15 100 -4 250 23 336 124 1141 272 2164 53 368 65 435 100
570 65 254 133 357 255 389 48 13 113 3 192 -28 29 -12 71 -21 92 -21 33 0 47
7 81 41 43 43 78 109 79 147 0 41 -28 92 -56 103 -53 19 -107 20 -156 0z"/>
</g>
</svg>
